<svg xmlns="http://www.w3.org/2000/svg" xmlns:xlink="http://www.w3.org/1999/xlink" width="141.025" height="43.296" viewBox="0 0 141.025 43.296"><defs><clipPath id="a"><rect width="141.025" height="43.296"/></clipPath></defs><g fill="#000" clip-path="url(#a)"><path d="M718.535,15.537h-4.92a6.676,6.676,0,0,0-6.646,5.779c-.62,3.553,1.36,5.779,4.628,5.779h4.92ZM721.248,0h7.105L725.01,19.151,723.623,27.1l-1.058,6.063-.116.663H709c-6.205,0-10.371-5.447-9.139-12.505s7.3-12.506,13.5-12.506h6.342Z" transform="translate(-587.328)"/><path d="M361.415,77.3h4.92a6.676,6.676,0,0,0,6.646-5.779c.62-3.553-1.36-5.779-4.628-5.779h-4.921Zm-5.088-11.558.92-5.273Zm2.376,27.1H351.6l1.538-8.811.116-.663.077-.445,3.919-22.449.138-.79.116-.663h13.448c6.205,0,10.37,5.447,9.138,12.505s-7.3,12.506-13.5,12.506H360.24Z" transform="translate(-295.153 -49.541)"/><path d="M553.965,62.99l-6.983,14.5-2.728-14.5h-7.816l5.483,22.6c-1.547,2.89-3.292,3.932-6.608,3.932l-1.158,6.632c6.574.332,11.311-2.653,15.278-10.184L561.544,62.99Z" transform="translate(-448.404 -52.878)"/><path d="M19.421,37.29h8.148L22.636,25.116A13.711,13.711,0,0,0,30.425,15.5c1.1-6.3-3.084-11.369-9.384-11.369H5.788L0,37.29H7.579q2.274-13.027,4.548-26.053H19.8c2.084,0,3.467,1.847,3.045,4.264a4.988,4.988,0,0,1-4.534,4.263H12.274Z" transform="translate(0 -3.468)"/><path d="M206.028,77.3h-4.92c-3.269,0-5.248-2.226-4.628-5.779a6.676,6.676,0,0,1,6.646-5.779h4.92Zm-3.15-18.284c-6.206,0-12.272,5.447-13.5,12.505s2.933,12.506,9.139,12.506H211.96l.116-.663,1.059-6.063,2.018-11.558,1.058-6.063.116-.663H202.878Z" transform="translate(-158.791 -49.541)"/></g></svg>
